<?xml version="1.0" encoding="UTF-8" standalone="no"?>
<svg
   xmlns:dc="http://purl.org/dc/elements/1.1/"
   xmlns:cc="http://creativecommons.org/ns#"
   xmlns:rdf="http://www.w3.org/1999/02/22-rdf-syntax-ns#"
   xmlns:svg="http://www.w3.org/2000/svg"
   xmlns="http://www.w3.org/2000/svg"
   xmlns:sodipodi="http://sodipodi.sourceforge.net/DTD/sodipodi-0.dtd"
   xmlns:inkscape="http://www.inkscape.org/namespaces/inkscape"
   viewBox="0 0 997.00897 1404.0116"
   version="1.1"
   id="svg42"
   width="1000"
   height="1400"
   sodipodi:docname="CR-Furry-rs.svg"
   inkscape:version="0.92.2 5c3e80d, 2017-08-06">
  <sodipodi:namedview
     pagecolor="#ffffff"
     bordercolor="#666666"
     borderopacity="1"
     objecttolerance="10"
     gridtolerance="10"
     guidetolerance="10"
     inkscape:pageopacity="0"
     inkscape:pageshadow="2"
     inkscape:window-width="1918"
     inkscape:window-height="1026"
     id="namedview25"
     showgrid="false"
     inkscape:zoom="0.476792"
     inkscape:cx="278.29951"
     inkscape:cy="793.23826"
     inkscape:window-x="0"
     inkscape:window-y="27"
     inkscape:window-maximized="1"
     inkscape:current-layer="svg42">
    <sodipodi:guide
       position="0,0"
       orientation="0,1000"
       id="guide832"
       inkscape:locked="false" />
    <sodipodi:guide
       position="997.00897,0"
       orientation="-1400,0"
       id="guide834"
       inkscape:locked="false" />
    <sodipodi:guide
       position="997.00897,1404.0116"
       orientation="0,-1000"
       id="guide836"
       inkscape:locked="false" />
    <sodipodi:guide
       position="0,1404.0116"
       orientation="1400,0"
       id="guide838"
       inkscape:locked="false" />
  </sodipodi:namedview>
  <title
     id="title4545">Content rated FURRY</title>
  <metadata
     id="metadata48">
    <rdf:RDF>
      <cc:Work
         rdf:about="">
        <dc:format>image/svg+xml</dc:format>
        <dc:type
           rdf:resource="http://purl.org/dc/dcmitype/StillImage" />
        <dc:title>Content rated FURRY</dc:title>
        <cc:license
           rdf:resource="http://creativecommons.org/licenses/by-nc-sa/4.0/" />
        <dc:date>13 September 2017</dc:date>
        <dc:creator>
          <cc:Agent>
            <dc:title>vupli</dc:title>
          </cc:Agent>
        </dc:creator>
        <dc:rights>
          <cc:Agent>
            <dc:title>vupli</dc:title>
          </cc:Agent>
        </dc:rights>
        <dc:publisher>
          <cc:Agent>
            <dc:title>vupli</dc:title>
          </cc:Agent>
        </dc:publisher>
        <dc:identifier>CR-Furry-1</dc:identifier>
        <dc:source>https://llorephie.me/</dc:source>
        <dc:subject>
          <rdf:Bag>
            <rdf:li>Furry</rdf:li>
          </rdf:Bag>
        </dc:subject>
        <dc:contributor>
          <cc:Agent>
            <dc:title>Maxim Llorephie</dc:title>
          </cc:Agent>
        </dc:contributor>
        <dc:language>English</dc:language>
      </cc:Work>
      <cc:License
         rdf:about="http://creativecommons.org/licenses/by-nc-sa/4.0/">
        <cc:permits
           rdf:resource="http://creativecommons.org/ns#Reproduction" />
        <cc:permits
           rdf:resource="http://creativecommons.org/ns#Distribution" />
        <cc:requires
           rdf:resource="http://creativecommons.org/ns#Notice" />
        <cc:requires
           rdf:resource="http://creativecommons.org/ns#Attribution" />
        <cc:prohibits
           rdf:resource="http://creativecommons.org/ns#CommercialUse" />
        <cc:permits
           rdf:resource="http://creativecommons.org/ns#DerivativeWorks" />
        <cc:requires
           rdf:resource="http://creativecommons.org/ns#ShareAlike" />
      </cc:License>
    </rdf:RDF>
  </metadata>
  <defs
     id="defs46" />
  <path
     d="M 985.93915,0 H -2.9282293 V 1404.0116 H 999.9372 V 0 Z m 0,1390.937 H 11.069893 V 13.074602 H 985.93915"
     id="path4"
     inkscape:connector-curvature="0"
     style="stroke-width:1.00279808" />
  <path
     d="m 642.90515,1006.9962 c -17.66763,0.4626 -32.71561,-4.5159 -45.13394,-17.09776 -29.0761,-29.53854 -49.36338,-62.27534 -48.23353,-106.37699 0.81989,-32.09313 -8.49886,-62.3558 -30.5859,-86.92601 -49.32339,-54.96362 -7.93894,-162.92968 67.53094,-169.96985 12.35834,-1.1566 24.42672,-0.78448 35.42525,4.56605 35.45524,17.23836 71.89036,17.27859 109.12536,7.9554 55.1826,-13.81886 103.98606,5.97408 132.64221,54.3099 10.91854,18.40501 11.2085,38.09738 1.85975,56.98515 -10.54858,21.31161 -27.71628,36.51838 -48.67347,47.48093 -17.49765,9.15223 -35.40525,17.6306 -52.21299,27.92937 -18.74749,11.48553 -29.99598,28.78424 -32.0657,51.29268 -1.14985,12.62201 -2.2997,25.26416 -2.75963,37.91635 -1.38982,38.21808 -25.64656,61.71214 -52.9929,82.84271 -9.74869,7.52307 -21.84707,10.03747 -33.92545,9.09207 z"
     id="path6"
     inkscape:connector-curvature="0"
     style="stroke-width:1.00279808" />
  <path
     d="m 414.79575,647.02197 c -1.99974,22.00557 -11.99839,41.81862 -33.5755,54.61162 -23.67683,14.08034 -47.30366,7.57321 -66.22112,-7.13069 -41.59442,-32.3345 -79.46934,-69.27529 -109.54531,-112.94447 -24.10676,-34.99971 -5.99919,-82.47058 32.87559,-90.8685 16.61777,-3.60054 31.89573,2.68532 45.74387,9.77578 43.55416,22.30728 85.12858,47.43064 113.65476,89.51075 11.34847,16.75561 14.82801,35.20086 17.06771,57.04551 z"
     id="path8"
     inkscape:connector-curvature="0"
     style="stroke-width:1.00279808" />
  <path
     d="m 359.68314,363.99701 c 17.33767,-2.102 31.3258,7.885 45.4439,15.85044 41.7844,23.55441 76.91969,54.45071 100.11658,97.55667 a 66.641062,67.032491 0 0 1 3.51952,7.47264 c 20.62724,53.0326 -13.62817,83.8585 -63.19152,82.19903 -30.62589,-1.00574 -53.99276,-20.53719 -75.98981,-39.64622 -24.07677,-20.92943 -45.4639,-44.50394 -61.37177,-72.84567 -9.99866,-17.83175 -16.55778,-35.46234 -5.10931,-54.39035 12.6683,-21.03 28.49617,-38.26836 56.58241,-36.19654 z"
     id="path10"
     inkscape:connector-curvature="0"
     style="stroke-width:1.00279808" />
  <path
     d="m 319.93847,727.74257 c 19.3374,-0.86494 36.76507,5.9238 53.21286,14.83464 33.61549,18.22399 61.45176,43.6189 86.25843,72.61434 15.08798,17.63061 22.12704,37.39337 12.47833,59.43917 -10.30862,23.53429 -32.99558,29.10608 -55.38257,32.97818 -20.21729,3.51002 -38.13489,-5.30025 -53.80279,-16.41366 -32.11569,-22.77999 -65.5712,-44.4436 -86.32842,-79.83555 -6.41914,-10.94244 -13.18823,-21.70384 -13.51819,-34.94943 -0.76989,-31.15778 19.52739,-48.36597 57.08235,-48.66769 z"
     id="path12"
     inkscape:connector-curvature="0"
     style="stroke-width:1.00279808" />
  <path
     d="m 723.1044,517.33195 c 0.52993,41.85885 -36.89505,66.90174 -71.17046,51.77544 -38.11489,-16.81596 -63.25151,-48.09444 -86.98833,-80.69043 -11.99839,-16.51424 -21.67709,-34.30576 -27.23635,-54.22943 -4.93934,-17.72112 -0.88988,-32.76698 14.1781,-43.51833 20.19729,-14.42229 40.82452,-20.8389 65.74118,-8.34763 49.58335,24.86187 84.22871,62.01386 101.25642,115.20738 2.53966,7.77436 3.45954,16.07171 4.21944,19.803 z"
     id="path14"
     inkscape:connector-curvature="0"
     style="stroke-width:1.00279808" />
  <path
     d="m 254.32727,333.66393 c 19.78734,1.23706 39.5147,6.62781 57.4223,18.65646 8.11891,5.46115 8.65884,9.23267 -0.39995,13.53724 -9.87867,4.6968 -16.23782,12.99415 -21.40713,22.20671 -4.4294,7.90511 -8.27889,8.57896 -14.82801,1.60919 -7.85895,-8.3577 -17.10771,-15.38781 -25.61656,-23.132 -6.90908,-6.29593 -14.99799,-8.77004 -24.14677,-8.4482 -3.85948,0.1408 -8.1889,-0.23133 -9.31875,-4.91807 -0.99986,-4.12353 1.46981,-7.5531 4.40941,-10.11773 9.33875,-8.14649 20.9272,-8.73987 33.88546,-9.3936 z"
     id="path16"
     inkscape:connector-curvature="0"
     style="stroke-width:1.00279808" />
  <path
     d="m 145.59185,450.44026 c 1.21984,-5.14939 1.92974,-10.05739 3.58952,-14.68378 1.80976,-5.0287 2.66964,-12.43094 8.76882,-12.68237 6.99906,-0.29167 6.11918,7.86487 8.2089,12.53151 8.16891,18.30444 18.30755,35.00976 35.90519,45.76111 9.56871,5.84334 11.84841,11.27434 0,17.09756 -7.67897,3.77152 -12.79829,9.88641 -15.78789,18.1033 -2.80962,7.68384 -8.25889,7.74419 -11.75842,1.34769 -11.76842,-21.55298 -24.69669,-42.69361 -28.92612,-67.47502 z"
     id="path18"
     inkscape:connector-curvature="0"
     style="stroke-width:1.00279808" />
  <path
     d="m 489.65571,339.17538 c 20.15729,-0.39224 37.91491,9.73555 54.58268,22.83027 7.64897,6.03443 7.89894,10.84186 -0.50994,16.37343 a 41.594422,41.838734 0 0 0 -10.54858,10.11773 c -12.42833,17.09756 -12.21836,17.09756 -24.44672,-1.40804 -8.9988,-13.68811 -20.20729,-24.42939 -37.56496,-26.26989 -4.64938,-0.49282 -10.90854,0.4224 -11.78842,-6.14506 -0.87989,-6.56748 4.4494,-9.59476 9.39874,-12.06888 5.9592,-2.95686 12.32834,-4.34478 20.8772,-3.42956 z"
     id="path20"
     inkscape:connector-curvature="0"
     style="stroke-width:1.00279808" />
  <path
     d="m 216.66232,660.94139 c 5.61925,0.4023 7.36901,4.83761 8.70883,8.89074 6.66911,20.11477 16.54778,37.26262 37.90492,44.78554 2.60965,0.92529 5.87921,4.02296 4.4194,6.03444 -7.58898,10.34905 -15.82787,20.22541 -24.17675,29.98107 -0.56993,0.66379 -4.08945,-0.62356 -5.83922,-1.66953 -17.99759,-10.72117 -35.38525,-54.65184 -29.87599,-75.18903 1.41981,-5.36058 2.81962,-10.83181 8.85881,-12.83323 z"
     id="path22"
     inkscape:connector-curvature="0"
     style="stroke-width:1.00279808" />
  <path
     d="m 731.81323,120.34673 v -7.64362 q 0,-6.61776 -3.04959,-8.67953 -3.04959,-2.06176 -11.15851,-2.06176 v 30.93652 q 7.88895,0 11.04852,-1.67958 3.15958,-1.67958 3.15958,-10.87203 z"
     id="path24"
     inkscape:connector-curvature="0"
     style="stroke-width:1.00279808" />
  <path
     d="m 339.78581,109.18302 q -7.14904,39.96807 -8.9988,58.44349 h 16.09784 q -3.52952,-23.64492 -7.09904,-58.44349 z"
     id="path26"
     inkscape:connector-curvature="0"
     style="stroke-width:1.00279808" />
  <path
     d="m 611.54936,1125.1604 q -1.4798,-1.1766 -5.39928,-1.1766 v 17.6808 q 3.80949,0 5.33929,-1.0057 1.52979,-1.0058 1.4998,-6.1853 v -4.3749 q 0,-3.7515 -1.43981,-4.9383 z"
     id="path28"
     inkscape:connector-curvature="0"
     style="stroke-width:1.00279808" />
  <path
     d="m 839.3888,1164.7463 v -30.8862 a 37.604957,37.825837 0 0 0 -0.37995,-6.9195 3.2995575,3.3189381 0 0 0 -1.71977,-2.2327 12.158369,12.229784 0 0 0 -4.99933,-0.7141 v 52.2984 q 4.88935,0 5.9992,-1.7902 1.10985,-1.7902 1.09985,-9.7557 z"
     id="path30"
     inkscape:connector-curvature="0"
     style="stroke-width:1.00279808" />
  <path
     d="m 655.68344,1228.0676 q -3.19957,-2.0114 -11.67843,-2.0114 v 30.1118 q 8.24889,0 11.55845,-1.6294 3.30955,-1.6292 3.30955,-10.5602 v -7.4324 q 0,-6.4669 -3.18957,-8.4784 z"
     id="path32"
     inkscape:connector-curvature="0"
     style="stroke-width:1.00279808" />
  <path
     d="M 36.06654,35.200856 V 1368.8107 H 960.9425 V 35.200856 Z m 773.1963,42.955105 h 77.98954 v 27.848929 h -31.22581 v 26.38053 h 29.20608 v 26.47104 h -29.20608 v 30.59458 h 34.3154 v 27.84891 h -81.07913 z m -138.43143,0 h 33.14555 q 33.09556,0 44.81399,2.011478 a 32.295669,32.485363 0 0 1 19.10744,10.057388 q 7.38901,8.126379 7.38901,25.907853 0,16.24268 -5.2193,21.82454 -5.2193,5.58184 -20.54725,6.70827 13.88814,2.66521 18.6575,7.13069 4.76936,4.46548 5.93921,8.20683 1.16984,3.74135 1.16984,20.58747 v 36.69941 H 731.81323 V 171.0259 q 0,-11.17375 -2.2797,-13.83896 -2.27969,-2.66521 -11.93839,-2.66521 v 62.73799 h -46.76373 z m -140.98109,0 h 46.76372 V 182.48127 q 0,9.11199 1.27983,11.64646 1.27983,2.53446 5.16931,2.53446 4.4394,0 5.71923,-2.79595 1.27983,-2.79596 1.27983,-13.1953 V 78.155961 h 46.76373 V 171.1466 q 0,15.81021 -1.32982,22.21677 -1.32982,6.40655 -7.88895,13.145 -6.61911,6.70828 -17.28768,10.22836 -10.66857,3.52009 -25.27661,3.52009 -16.10784,0 -28.43618,-4.12353 -12.32835,-4.12353 -18.43753,-10.74129 -6.10918,-6.61776 -7.21903,-13.96971 -1.10985,-7.35195 -1.10985,-30.8963 z m -128.10282,0 h 102.18629 v 27.848929 h -27.77627 v 111.285 H 429.40379 V 105.99483 H 401.7475 Z m -97.64691,0 h 67.58094 l 26.73641,139.133929 h -47.78359 l -2.50966,-25.01272 h -16.71776 l -2.80962,25.01272 h -48.34352 z m -192.21422,0 h 60.50189 q 2.68964,12.55162 5.54925,29.578799 l 6.63911,35.39195 10.74856,-64.970749 h 60.84184 V 217.28989 H 215.2925 l -0.06,-93.93601 -16.26782,93.93601 h -28.99611 l -17.1577,-91.78372 -0.06,91.78372 h -40.8645 z M 165.04924,1123.6619 q -0.7299,-1.4985 -3.19957,-1.4985 -2.78963,0 -3.53952,1.8204 -0.7499,1.8203 -0.7499,7.8547 v 36.9308 q 0,5.793 0.7499,7.5631 0.74989,1.7702 3.37954,1.7702 2.51966,0 3.29956,-1.7702 0.77989,-1.7701 0.77989,-8.3174 v -9.9971 h 22.60697 v 3.0977 q 0,12.3404 -1.90974,17.5099 -1.90974,5.1695 -8.42887,9.0516 -6.52912,3.8822 -16.08784,3.8822 -9.93867,0 -16.37781,-3.2887 -6.43913,-3.2888 -8.53885,-9.112 -2.08972,-5.8232 -2.08972,-17.51 v -23.2326 a 93.447467,93.996349 0 0 1 0.63991,-12.8935 17.127703,17.228306 0 0 1 3.83949,-8.2772 21.24715,21.371949 0 0 1 8.85881,-6.2658 34.815331,35.019825 0 0 1 12.99826,-2.283 q 9.99866,0 16.48779,3.5301 6.48913,3.5302 8.53885,8.8003 1.99973,5.27 1.99973,16.4036 v 7.5531 h -22.52698 v -13.8189 q 0,-6.0043 -0.7299,-7.5028 z m 52.79292,106.3569 h -33.92545 v 25.6262 h 30.20595 v 25.6664 h -30.20595 v 56.774 h -48.92344 v -135.1411 h 82.84889 z m 35.48524,-73.0569 a 156.80897,157.73001 0 0 1 -0.61991,16.9668 17.937594,18.042954 0 0 1 -3.86949,9.112 20.637232,20.758449 0 0 1 -8.77882,6.3362 34.775336,34.979596 0 0 1 -12.88827,2.2126 35.675215,35.884761 0 0 1 -12.53832,-2.092 20.487252,20.607588 0 0 1 -8.9388,-6.2657 17.807612,17.912208 0 0 1 -3.99946,-9.0517 151.79964,152.69127 0 0 1 -0.63992,-17.188 v -13.6077 a 156.569,157.48864 0 0 1 0.61992,-16.9668 17.927596,18.032897 0 0 1 3.86948,-9.112 20.617235,20.738334 0 0 1 8.77882,-6.3361 34.775336,34.979596 0 0 1 12.88827,-2.2126 35.675215,35.884761 0 0 1 12.53832,2.0919 20.50725,20.627703 0 0 1 8.9388,6.2657 17.807612,17.912208 0 0 1 3.99947,9.0517 151.82964,152.72144 0 0 1 0.63991,17.188 z m 123.25347,136.3379 q 0,15.3576 -1.38981,21.5833 -1.38982,6.2255 -8.2489,12.7728 -6.85908,6.5574 -18.06757,9.9367 -11.2085,3.3792 -26.43646,3.3792 -16.84774,0 -29.74601,-4.0229 -12.89827,-4.023 -19.28741,-10.4395 -6.38914,-6.4267 -7.54899,-13.5675 -1.15984,-7.1407 -1.15984,-30.0112 v -79.9764 h 48.91344 v 101.3483 q 0,8.8506 1.33982,11.3146 1.33982,2.464 5.39927,2.464 4.64938,0 5.9992,-2.7154 1.34982,-2.7156 1.33982,-12.8131 v -99.5682 h 48.91344 z m -109.64529,-103.41 v -79.554 h 18.89746 l 12.6783,35.8044 v -35.8044 h 18.90747 v 79.5037 h -19.81735 l -11.75842,-36.1462 v 36.1462 z m 110.26521,-63.5929 h -13.4282 v 63.5929 h -22.60697 v -63.5929 h -13.36821 v -15.9611 h 49.40338 z m 49.53336,63.5929 H 387.5294 v -79.554 h 37.70495 v 15.9108 h -15.09798 v 15.0862 h 14.12811 v 15.086 h -14.12811 v 17.4797 h 16.59778 z m 106.26574,84.6027 q 4.99933,4.3448 6.21917,7.9755 1.21984,3.6307 1.21984,19.9941 v 35.6434 h -45.43391 v -44.9163 q 0,-10.8519 -2.37968,-13.4366 -2.37968,-2.5848 -12.48833,-2.5848 v 60.9478 h -48.91344 v -135.1713 h 34.62536 q 34.62536,0 46.88371,1.921 12.25836,1.9209 19.99732,9.8059 7.72896,7.885 7.72896,25.1435 0,15.78 -5.45926,21.2009 -5.45927,5.421 -21.49712,6.5072 14.49805,2.6249 19.49738,6.9697 z m -94.61731,-84.6027 v -79.554 h 18.90747 l 12.6783,35.8044 v -35.8044 h 18.90746 v 79.5037 h -19.81734 l -11.75842,-36.1462 v 36.1462 z m 110.26521,-63.5929 h -13.4082 v 63.5929 h -22.60697 v -63.5929 h -13.3782 v -15.9611 h 49.40337 z m 81.92902,26.1492 a 11.828414,11.89789 0 0 1 2.86961,4.6868 q 0.56993,2.1322 0.55993,11.757 v 20.9697 h -21.01718 v -26.4208 q 0,-6.3864 -1.09986,-7.905 -1.09985,-1.5188 -5.76922,-1.5188 v 35.8446 h -22.57698 v -79.5238 h 15.99786 q 15.99785,0 21.66709,1.1265 a 14.997989,15.086082 0 0 1 9.23876,5.7729 q 3.56953,4.6365 3.56953,14.8045 0,9.2829 -2.51967,12.4711 -2.51966,3.1882 -9.93866,3.8319 6.7191,1.569 9.02879,4.1235 z m 66.28111,122.0162 q 4.99933,4.3448 6.21916,7.9756 1.21984,3.6307 1.21984,19.994 v 35.6434 h -45.42391 v -44.9162 q 0,-10.852 -2.37968,-13.4367 -2.37968,-2.5847 -12.50832,-2.5646 v 60.9477 h -48.90344 v -135.1612 h 34.62535 q 34.62536,0 46.88372,1.921 12.25835,1.9209 19.99731,9.8059 7.72897,7.885 7.72897,25.1435 0,15.78 -5.45927,21.2009 -5.45927,5.421 -21.49712,6.5072 14.50806,2.6249 19.50739,6.9697 z m -54.05275,-84.6027 11.54845,-79.5238 h 32.67562 l 12.94826,79.554 h -23.1169 l -1.20984,-14.2915 h -8.08891 l -1.35982,14.2915 z m 92.19763,0 h -22.59697 v -63.5929 h -13.36821 v -15.9309 H 748.441 v 15.9108 h -13.46819 z m 92.4776,99.2966 v 48.9191 h -45.30393 v -48.9191 l -34.39538,-86.2421 h 44.93397 q 10.53859,39.5758 11.87841,53.3042 4.06945,-21.6335 13.62817,-53.3042 h 44.93397 z m -31.99571,-147.8436 v 15.0861 h -14.10811 v 17.4797 h 16.58778 v 15.9108 h -39.19475 v -79.4534 h 37.69495 v 15.9108 h -15.08798 v 15.0862 z m 14.1381,48.5168 v -79.4936 h 16.93773 q 16.37781,0 22.15703,1.3779 a 17.467657,17.570257 0 0 1 8.77882,4.5157 13.768153,13.849023 0 0 1 3.7595,7.0403 q 0.7499,3.8519 0.7499,15.1463 v 27.849 q 0,10.7111 -1.09985,14.3117 a 10.628575,10.691004 0 0 1 -3.83949,5.6522 16.727757,16.82601 0 0 1 -6.76909,2.8462 67.140995,67.535361 0 0 1 -12.13837,0.8147 z M 911.94907,1082.1752 H 85.059969 V 255.45768 H 911.94907 Z"
     id="path34"
     inkscape:connector-curvature="0"
     style="stroke-width:1.00279808" />
  <path
     d="m 671.6113,1128.1072 q -3.45953,22.8404 -4.33941,33.3906 h 7.77895 q -1.71977,-13.5071 -3.43954,-33.3906 z"
     id="path36"
     inkscape:connector-curvature="0"
     style="stroke-width:1.00279808" />
  <path
     d="m 491.81542,1228.0676 q -3.19957,-2.0114 -11.67844,-2.0114 v 30.1118 q 8.2489,0 11.55845,-1.6294 3.30956,-1.6292 3.30956,-10.5602 v -7.4324 q 0,-6.4669 -3.18957,-8.4784 z"
     id="path38"
     inkscape:connector-curvature="0"
     style="stroke-width:1.00279808" />
  <path
     d="m 227.2809,1122.1634 a 3.1895722,3.2083068 0 0 0 -2.70964,1.2571 q -0.93988,1.2572 -0.93988,7.3922 v 37.1218 q 0,6.9195 0.61992,8.5488 0.61992,1.6293 2.86962,1.6193 a 2.7796272,2.7959539 0 0 0 2.99959,-1.8707 q 0.63992,-1.8606 0.63992,-8.8908 v -36.5384 q 0,-5.5518 -0.66991,-7.1006 a 2.6996379,2.7154948 0 0 0 -2.80962,-1.5387 z"
     id="path40"
     inkscape:connector-curvature="0"
     style="stroke-width:1.00279808" />
</svg>
